HIERARCHY
ROOT hip
{
	OFFSET 0.000000 0.000000 0.000000 
	CHANNELS 6 Xposition Yposition Zposition Xrotation Zrotation Yrotation
	JOINT abdomen
	{
		OFFSET 0.000000 3.402643 0.000000 
		CHANNELS 3 Xrotation Zrotation Yrotation
		JOINT chest
		{
			OFFSET 0.000000 8.438565 -0.680529 
			CHANNELS 3 Xrotation Zrotation Yrotation
			JOINT neck
			{
				OFFSET 0.000000 10.207942 -0.272212 
				CHANNELS 3 Xrotation Zrotation Yrotation
				JOINT head
				{
					OFFSET 0.000000 3.130431 0.000000 
					CHANNELS 3 Xrotation Zrotation Yrotation
					End Site
					{
						OFFSET 0.000000 3.130435 0.000000 
					}
				}
			}
			JOINT lCollar
			{
				OFFSET 3.470700 6.669187 -0.816635 
				CHANNELS 3 Yrotation Zrotation Xrotation
				JOINT lShldr
				{
					OFFSET 3.198488 0.000000 0.000000 
					CHANNELS 3 Zrotation Yrotation Xrotation
					JOINT lForeArm
					{
						OFFSET 10.139888 0.000000 0.000000 
						CHANNELS 3 Yrotation Zrotation Xrotation
						JOINT lHand
						{
							OFFSET 8.370511 0.000000 0.000000 
							CHANNELS 3 Zrotation Yrotation Xrotation
							End Site
							{
								OFFSET 4.083176 0.000000 0.000000 
							}
						}
					}
				}
			}
			JOINT rCollar
			{
				OFFSET -3.470700 6.669187 -0.816635 
				CHANNELS 3 Yrotation Zrotation Xrotation
				JOINT rShldr
				{
					OFFSET -3.198488 0.000000 0.000000 
					CHANNELS 3 Zrotation Yrotation Xrotation
					JOINT rForeArm
					{
						OFFSET -10.139888 0.000000 0.000000 
						CHANNELS 3 Yrotation Zrotation Xrotation
						JOINT rHand
						{
							OFFSET -8.370511 0.000000 0.000000 
							CHANNELS 3 Zrotation Yrotation Xrotation
							End Site
							{
								OFFSET -4.083176 0.000000 0.000000 
							}
						}
					}
				}
			}
		}
	}
	JOINT lThigh
	{
		OFFSET 5.308129 -1.633274 1.361059 
		CHANNELS 3 Xrotation Zrotation Yrotation
		JOINT lShin
		{
			OFFSET -2.041588 -20.007561 0.000000 
			CHANNELS 3 Xrotation Zrotation Yrotation
			JOINT lFoot
			{
				OFFSET 0.000000 -19.190928 -1.224953 
				CHANNELS 3 Xrotation Yrotation Zrotation
				End Site
				{
					OFFSET 0.000000 -2.449906 4.627600 
				}
			}
		}
	}
	JOINT rThigh
	{
		OFFSET -5.308129 -1.633274 1.361059 
		CHANNELS 3 Xrotation Zrotation Yrotation
		JOINT rShin
		{
			OFFSET 2.041588 -20.007561 0.000000 
			CHANNELS 3 Xrotation Zrotation Yrotation
			JOINT rFoot
			{
				OFFSET 0.000000 -19.190928 -1.224953 
				CHANNELS 3 Xrotation Yrotation Zrotation
				End Site
				{
					OFFSET 0.000000 -2.449906 4.627600 
				}
			}
		}
	}
}
MOTION
Frames: 8
Frame Time: 0.016667
51.493195 44.738651 102.780762 -7.470704 8.535157 -134.697266 0.000000 0.000000 0.000000 8.281250 -4.003906 0.282521 -9.316407 0.878906 2.343750 -2.119140 1.035156 2.265794 -2.919922 9.550781 0.810547 -62.802734 21.103514 11.835937 -14.443360 -1.142578 2.480469 -5.664063 -25.292969 32.578125 2.910156 -10.087892 0.870851 71.826172 26.708984 24.154781 90.859375 0.664063 3.486215 -17.314453 10.605469 18.888515 -32.948204 24.129862 10.585502 57.658436 -1.847922 8.147738 -7.886251 0.319740 -16.822548 10.093579 -10.153732 -14.596066 13.171475 3.069439 -48.045822 -9.249488 -5.395225 24.219776 
50.481796 44.784580 102.742897 -8.359375 8.691406 -134.500488 0.000000 0.000000 0.000000 7.753906 -4.189453 0.292969 -9.492188 0.449219 1.875000 -3.173828 0.341797 2.031250 -2.880859 9.384766 0.625000 -65.107422 24.003908 9.984443 -17.255857 -1.093750 2.490421 -3.183594 -21.640625 28.271484 2.880859 -10.273352 0.704868 71.806641 31.826176 25.351561 91.386719 0.673828 3.495979 -17.177734 11.142578 20.654295 -32.512764 22.463991 10.920178 57.342602 -2.180495 8.849082 -8.846770 0.657094 -17.672955 11.030914 -11.433422 -15.187363 11.392627 3.368007 -47.067539 -8.644438 -5.649140 22.345083 
49.391621 44.743431 102.720375 -9.970703 9.003906 -134.101563 0.000000 0.000000 0.000000 6.699219 -4.892579 0.458151 -9.492188 0.205078 1.386754 -4.052734 0.166016 1.542996 -2.880859 9.384766 0.625000 -67.216797 26.376951 8.476561 -20.595703 -1.035156 2.509942 -0.751953 -17.451172 23.239262 2.880859 -10.273352 0.704868 72.265625 34.677738 26.630856 91.386719 0.664063 3.495981 -17.910158 11.445313 21.855467 -32.479271 19.803745 10.982586 57.027252 -2.170716 9.771994 -10.253017 0.569607 -18.953474 11.277425 -12.752610 -17.235704 9.996244 3.241350 -45.072830 -8.004160 -6.380850 20.660339 
48.139355 44.709957 102.733452 -11.386719 8.789063 -133.406708 0.000000 0.000000 0.000000 6.171875 -5.419922 0.625000 -9.492188 -0.097656 0.546858 -5.107422 -0.859375 0.908203 -2.880859 9.384766 0.625000 -70.361328 27.822268 6.240234 -23.583986 -1.142578 2.460938 1.406250 -14.863280 17.136168 2.880859 -10.273352 0.704868 72.646484 36.123047 27.925680 91.035156 0.664063 3.495981 -18.144533 12.128906 22.871094 -31.760674 16.459526 10.228836 56.226860 -1.986455 11.491068 -11.303855 0.638863 -19.554344 12.028286 -14.568914 -18.840925 9.098175 3.154153 -44.436737 -6.720944 -7.452254 19.009472 
46.903954 44.710205 102.674561 -12.265625 8.417969 -131.883331 0.000000 0.000000 0.000000 6.181641 -5.947266 0.742188 -9.501954 -0.800781 -0.585938 -6.337891 -1.533203 -0.302734 -2.705078 9.384766 0.634766 -72.392570 28.964844 5.522309 -28.681641 -1.044922 2.666016 3.857421 -11.367187 8.281250 3.056641 -10.263673 0.704865 71.455078 35.546871 28.984375 91.562500 0.664063 3.505859 -18.701172 12.441407 23.203125 -30.820255 13.261851 9.196372 55.703602 -1.997899 11.862019 -13.590118 0.976763 -19.370098 14.156440 -15.798905 -20.327726 7.165807 3.301842 -43.492043 -5.148495 -9.332166 17.449791 
45.648422 44.728077 102.363846 -13.603516 10.595703 -134.197418 0.000000 0.000000 0.000000 2.998047 -5.625000 0.742187 -9.677735 -0.322266 0.224610 -6.162109 -1.367188 0.527344 -2.675781 9.394530 0.458984 -76.484375 33.007813 -0.058594 -35.000000 -0.937500 2.705238 8.134766 -8.974609 1.894531 3.027344 -10.273438 0.529085 73.203125 36.220703 35.191315 90.156250 0.654297 3.476563 -20.009768 13.222657 21.748045 -30.617495 13.422701 10.401126 55.195656 -1.994408 12.610401 -15.361854 1.300514 -19.476555 11.693344 -16.664707 -18.859049 8.016901 3.285229 -39.733074 -4.057279 -11.166764 14.978720 
44.307186 44.817173 102.353653 -13.398438 10.087891 -132.293213 0.000000 0.000000 0.000000 4.404297 -5.087891 0.644531 -9.492188 -0.849609 -0.937502 -7.744140 -1.191406 -0.713094 -2.880859 9.384766 0.625000 -77.832031 35.410156 2.392578 -47.138672 -0.869141 2.695313 13.583983 -3.486328 -1.845703 2.880859 -10.273352 0.704868 72.216789 33.183594 35.507813 89.804688 0.654297 3.476563 -19.726561 14.121095 21.721134 -28.521219 10.974100 9.055603 54.001820 -2.338050 13.218478 -16.838011 0.866495 -18.982227 13.127626 -17.582836 -20.592899 9.295610 3.238379 -33.856934 -5.007957 -13.512934 9.536463 
43.022198 44.977623 102.181381 -14.658204 10.205079 -130.791016 0.000000 0.000000 0.000000 3.886719 -5.791016 0.819327 -9.492188 -1.572266 -2.236328 -8.095703 -0.507813 -2.666102 -2.705078 9.384766 0.634766 -79.287109 36.044922 2.988281 -55.566406 -0.722656 2.949219 16.953125 -1.298828 -2.871315 3.056641 -10.263673 0.704865 72.412109 28.251953 35.039059 88.730469 0.644531 3.457031 -18.310549 14.228516 23.007813 -27.225666 8.407818 8.506231 51.869061 -2.307297 13.049955 -17.558279 0.774547 -18.082281 10.658019 -20.023214 -21.681206 15.339063 3.145828 -26.928658 -6.110424 -14.100999 4.145509 
